<svg width="24" height="24" viewBox="0 0 24 24" fill="none" xmlns="http://www.w3.org/2000/svg">
<path d="M12 19C15.31 19 18 16.31 18 13V8C18 4.69 15.31 2 12 2C8.69 2 6 4.69 6 8V13C6 16.31 8.69 19 12 19Z" stroke="white" stroke-width="1.5" stroke-linecap="round" stroke-linejoin="round"/>
<path d="M3 11V13C3 15.387 3.94821 17.6761 5.63604 19.364C7.32387 21.0518 9.61305 22 12 22C14.3869 22 16.6761 21.0518 18.364 19.364C20.0518 17.6761 21 15.387 21 13V11M9.11 7.48C10.8857 6.82999 12.8343 6.82999 14.61 7.48M10.03 10.48C11.23 10.15 12.5 10.15 13.7 10.48" stroke="white" stroke-width="1.5" stroke-linecap="round" stroke-linejoin="round"/>
</svg>
