<svg width="22" height="22" viewBox="0 0 22 22" fill="none" xmlns="http://www.w3.org/2000/svg">
<path d="M12.8246 2.44418L14.5989 5.99287C14.8409 6.48687 15.4861 6.9607 16.0305 7.05143L19.2465 7.58576C21.3031 7.92853 21.787 9.42059 20.305 10.8925L17.8048 13.3927C17.3814 13.8161 17.1495 14.6327 17.2806 15.2175L17.9964 18.3125C18.5609 20.7623 17.2604 21.71 15.0929 20.4296L12.0785 18.6452C11.5341 18.3226 10.6369 18.3226 10.0824 18.6452L7.068 20.4296C4.91056 21.71 3.59996 20.7522 4.16452 18.3125L4.88031 15.2175C5.01137 14.6327 4.7795 13.8161 4.35607 13.3927L1.85585 10.8925C0.383951 9.42059 0.857783 7.92853 2.91441 7.58576L6.13042 7.05143C6.66474 6.9607 7.30996 6.48687 7.55191 5.99287L9.32626 2.44418C10.2941 0.518607 11.8668 0.518607 12.8246 2.44418Z" fill="#FF5416" stroke="#FF5416" stroke-width="1.5" stroke-linecap="round" stroke-linejoin="round"/>
</svg>
