<svg width="14" height="14" viewBox="0 0 14 14" fill="none" xmlns="http://www.w3.org/2000/svg">
<path d="M8.09473 1.86651L9.15934 3.99572C9.30451 4.29212 9.69164 4.57642 10.0183 4.63086L11.9479 4.95145C13.1819 5.15712 13.4722 6.05236 12.583 6.9355L11.0829 8.43563C10.8288 8.68968 10.6897 9.17964 10.7684 9.53048L11.1978 11.3875C11.5366 12.8574 10.7563 13.426 9.45574 12.6578L7.64711 11.5871C7.32047 11.3935 6.78212 11.3935 6.44943 11.5871L4.6408 12.6578C3.34633 13.426 2.55997 12.8513 2.89871 11.3875L3.32819 9.53048C3.40682 9.17964 3.2677 8.68968 3.01364 8.43563L1.51351 6.9355C0.63037 6.05236 0.91467 5.15712 2.14865 4.95145L4.07825 4.63086C4.39884 4.57642 4.78597 4.29212 4.93115 3.99572L5.99576 1.86651C6.57645 0.711164 7.52008 0.711164 8.09473 1.86651Z" fill="#C2185B" stroke="#C2185B" stroke-width="1.5" stroke-linecap="round" stroke-linejoin="round"/>
</svg>
